<svg xmlns="http://www.w3.org/2000/svg" xmlns:xlink="http://www.w3.org/1999/xlink" viewBox="0 0 1105.77 1105.77"><defs><clipPath id="clip-path"><circle cx="552.88" cy="552.88" r="376" fill="none"/></clipPath></defs><title>hacknight_circle</title><g style="isolation:isolate"><g id="Layer_1" data-name="Layer 1"><g clip-path="url(#clip-path)"><g style="mix-blend-mode:overlay"><g style="mix-blend-mode:screen"><path d="M922.38,552.88l-739,149.9A153,153,0,0,1,122.57,403a156.23,156.23,0,0,1,60.81,0Z" fill="#0071d4"/></g><g style="mix-blend-mode:screen"><path d="M552.88,183.39l149.9,739A153,153,0,1,1,403,983.19a156.22,156.22,0,0,1,0-60.81Z" fill="#00af8d"/></g><g style="mix-blend-mode:screen"><path d="M814.16,291.61,397.6,920.15a153,153,0,1,1-255-169,156.22,156.22,0,0,1,43-43Z" fill="#00c0ff"/></g><g style="mix-blend-mode:screen"><path d="M291.61,291.61,920.15,708.16a153,153,0,1,1-169,255,156.23,156.23,0,0,1-43-43Z" fill="#36c640"/></g><g style="mix-blend-mode:screen"><path d="M552.88,922.38,403,183.39a153,153,0,1,1,299.8-60.81,156.22,156.22,0,0,1,0,60.81Z" fill="#ca4696"/></g><g style="mix-blend-mode:screen"><path d="M291.61,814.16,708.16,185.62a153,153,0,0,1,255,169,156.23,156.23,0,0,1-43,43Z" fill="#ff3e73"/></g><g style="mix-blend-mode:screen"><path d="M814.16,814.16,185.62,397.6a153,153,0,0,1,169-255,156.22,156.22,0,0,1,43,43Z" fill="#826fcd"/></g><g style="mix-blend-mode:screen"><path d="M922.38,702.78l-739-149.9,739-149.9a153,153,0,1,1,60.81,299.8A156.22,156.22,0,0,1,922.38,702.78Z" fill="#ffbe00"/></g></g></g></g></g></svg>